<svg version="1.1" id="Layer_1" xmlns="http://www.w3.org/2000/svg" xmlns:xlink="http://www.w3.org/1999/xlink" x="0px" y="0px"
	 width="100%" viewBox="0 0 512 512" enable-background="new 0 0 512 512" xml:space="preserve">
<path fill="#000000" opacity="1.000000" stroke="none" 
	d="
M1.000000,311.463196 
	C3.774606,306.639435 7.780289,303.835938 12.402923,301.693726 
	C24.322378,296.170044 35.527714,289.116119 47.972485,284.735291 
	C56.999977,281.557465 66.518150,281.015930 75.327515,284.483917 
	C82.867599,287.452240 87.213959,284.419159 92.202927,279.754211 
	C102.495316,270.130249 112.686188,260.274017 124.660973,252.717499 
	C140.378326,242.799210 157.482498,237.389236 176.268768,236.498398 
	C197.089859,235.511093 216.363190,240.033539 234.607010,249.707169 
	C242.884109,254.096039 249.949432,260.228119 257.110107,266.126648 
	C262.847412,270.852661 269.209473,272.664551 276.382660,272.661194 
	C300.544495,272.649872 324.706451,272.708801 348.868134,272.648376 
	C368.043121,272.600403 381.138550,282.031555 389.787109,298.546265 
	C390.169556,299.276520 390.465332,300.051758 390.829315,300.792389 
	C390.890015,300.915833 391.094330,300.968719 391.532593,301.240326 
	C394.233032,300.144867 396.050140,297.721008 398.033936,295.581421 
	C409.552216,283.158569 421.107544,270.767975 432.473969,258.206909 
	C447.734558,241.342468 470.203583,237.853958 490.247101,247.806427 
	C502.066803,253.675430 508.911163,263.936646 512.884277,276.664581 
	C513.000000,283.687653 513.000000,290.375275 512.875854,297.865112 
	C510.872711,306.023285 507.174316,312.436371 502.656860,318.460968 
	C488.139008,337.822357 474.009613,357.486969 459.076508,376.521667 
	C445.520721,393.800720 434.466125,413.080597 417.549957,427.718475 
	C399.321045,443.492340 378.432770,453.004822 354.387421,453.209229 
	C295.276459,453.711761 236.158249,453.405029 177.043259,453.278656 
	C172.799362,453.269592 171.005981,454.259247 171.209702,458.810974 
	C171.338837,461.696167 170.372498,464.679657 169.621521,467.546783 
	C165.577866,482.984680 154.579758,491.954041 140.924057,498.633942 
	C131.524429,503.231842 121.971153,507.558563 113.000000,513.000000 
	C108.643097,513.000000 104.286201,513.000000 99.235718,512.753906 
	C95.129295,509.826874 92.250923,506.792999 90.280197,502.782654 
	C81.415665,484.743622 72.390450,466.783508 63.403927,448.804504 
	C42.608547,407.200073 21.802004,365.601166 0.999995,324.000000 
	C1.000000,319.975464 1.000000,315.950897 1.000000,311.463196 
M375.869629,416.385406 
	C383.760376,412.753998 391.061249,408.337463 397.518005,402.362610 
	C408.112762,392.558624 415.764435,380.449341 424.387848,369.114075 
	C442.471100,345.344177 460.307251,321.386139 478.218658,297.485687 
	C482.954712,291.166077 482.884827,282.552032 478.168243,278.324554 
	C471.837341,272.650177 463.510376,272.836365 457.132477,279.095459 
	C452.988861,283.161896 449.198914,287.587585 445.225983,291.829376 
	C439.317810,298.137329 433.361115,304.399994 427.472748,310.726349 
	C414.801788,324.339661 402.512817,338.332672 389.375183,351.478394 
	C381.611786,359.246613 371.805206,363.528259 360.268127,363.442291 
	C330.776978,363.222443 301.279419,363.094971 271.792358,363.502441 
	C261.627411,363.642883 255.497818,355.453644 255.602936,348.340210 
	C255.747772,338.537781 261.511475,332.669464 271.557831,332.663116 
	C294.718842,332.648468 317.880127,332.598724 341.040527,332.717438 
	C344.595001,332.735626 348.076385,332.274933 351.366455,331.341888 
	C356.646179,329.844543 360.318451,326.130310 361.509186,320.678070 
	C362.783752,314.842133 360.311066,309.853638 355.418823,306.590424 
	C351.487946,303.968414 347.093201,303.404877 342.594177,303.395569 
	C316.600647,303.341797 290.606934,303.340515 264.613373,303.384064 
	C261.744995,303.388885 259.033142,302.941925 256.296082,302.110504 
	C245.663086,298.880463 237.325958,291.916962 229.088837,285.015533 
	C204.748917,264.622498 168.782043,262.242371 142.339127,279.674683 
	C130.511505,287.471954 120.864220,297.876312 109.987137,306.795837 
	C105.919609,310.131317 106.194122,312.463715 108.289902,316.604431 
	C125.203079,350.020264 141.976517,383.508148 158.517334,417.109528 
	C160.603073,421.346527 162.921143,422.765625 167.569901,422.752563 
	C224.388885,422.593231 281.208588,422.712158 338.027802,422.599884 
	C350.664917,422.574921 363.235626,421.531494 375.869629,416.385406 
M104.067734,380.292633 
	C94.419846,360.947021 84.812607,341.580963 75.103340,322.266205 
	C71.407784,314.914612 63.404221,312.392334 56.097008,316.037872 
	C51.333611,318.414307 46.629871,320.927063 41.769619,323.086670 
	C38.615803,324.488037 38.061382,326.106598 39.620094,329.213409 
	C63.572857,376.956116 87.464394,424.729645 111.279541,472.541107 
	C112.794907,475.583405 114.420685,475.815735 117.161484,474.355072 
	C121.860725,471.850647 126.698227,469.607269 131.439789,467.180298 
	C139.207474,463.204376 141.753571,455.676819 137.874924,447.886627 
	C126.757545,425.557678 115.581131,403.258148 104.067734,380.292633 
z"/>
<path fill="#000000" opacity="1.000000" stroke="none" 
	d="
M284.531342,1.000000 
	C294.600891,3.805978 303.662842,7.465894 311.552490,14.022412 
	C321.347351,22.162191 328.273621,32.109497 331.174927,44.337341 
	C336.394775,66.336891 334.155548,81.737724 318.825195,103.315063 
	C324.900818,107.756607 331.260803,111.884766 336.569580,117.330612 
	C354.166138,135.381439 363.589600,156.770264 363.356750,182.174881 
	C363.306366,187.670837 363.359314,193.167694 363.345306,198.664078 
	C363.322754,207.522507 357.645050,213.350113 348.882477,213.353836 
	C297.915680,213.375504 246.948868,213.375916 195.982071,213.353210 
	C187.252106,213.349319 181.577377,207.760529 181.680298,199.114777 
	C181.843979,185.365173 180.389328,171.498428 184.561005,158.016159 
	C188.789780,144.349319 195.254990,132.076294 205.135590,121.485023 
	C210.958725,115.243057 217.303650,109.867577 224.362106,105.199509 
	C226.580612,103.732307 226.889038,102.229881 224.921692,99.945694 
	C199.392975,70.305756 210.480682,20.092836 250.281525,4.628571 
	C253.031082,3.560259 255.768478,2.460740 258.755768,1.187865 
	C267.354218,1.000000 275.708466,1.000000 284.531342,1.000000 
M213.356094,178.345215 
	C212.823975,182.653351 215.608032,182.675095 218.700150,182.671631 
	C254.160217,182.631912 289.620331,182.649918 325.080444,182.643463 
	C331.691772,182.642258 332.600647,181.703690 331.554321,175.001144 
	C329.588165,162.405624 324.567322,151.147812 315.726135,141.875214 
	C297.006531,122.242210 268.457703,116.531631 243.463394,131.346252 
	C226.048111,141.668655 215.758682,157.120789 213.356094,178.345215 
M243.371674,57.971367 
	C243.364227,59.303867 243.441284,60.643044 243.336533,61.967854 
	C241.959137,79.390167 264.561371,97.880287 284.465698,88.221077 
	C299.375793,80.985481 306.144012,65.150215 299.213318,49.835121 
	C292.794037,35.650085 277.707611,27.654860 261.487457,34.729771 
	C251.516281,39.078999 246.077484,46.935043 243.371674,57.971367 
z"/>
</svg>